<svg xmlns="http://www.w3.org/2000/svg" viewBox="0 0 900 900"><g opacity="1" style="mix-blend-mode:normal"><defs><clipPath id="a" width="200%" height="200%" x="-50%" y="-50%"><path fill="#fff" d="M0 0h900v900H0V0z" clip-rule="nonzero"/></clipPath></defs><g clip-path="url(#a)"><g opacity="1" style="mix-blend-mode:normal"><defs><mask id="c" width="200%" height="200%" x="-50%" y="-50%" style="mask-type:alpha"><g opacity="1" style="mix-blend-mode:normal"><defs><linearGradient id="b" x1="450" x2="450" y1="95.422" y2="822.47" gradientUnits="userSpaceOnUse"><stop offset="0%" stop-color="#D9D9D9" stop-opacity="1"/><stop offset="34.38%" stop-color="#D9D9D9" stop-opacity=".4"/><stop offset="59.9%" stop-color="#D9D9D9" stop-opacity=".05"/></linearGradient></defs><path fill="url(#b)" fill-rule="nonzero" d="M0 0h900v900H0V0z"/></g></mask></defs><g mask="url(#c)"><g style="mix-blend-mode:normal" transform="translate(50 50)"><path id="d" fill="#BC924C" fill-opacity="1" fill-rule="evenodd" d="M542.775 55.262a219.109 219.109 0 0 1 9.84 9.253c33.952 33.951 54.227 76.402 60.825 120.505-45.634-6.453-92.928 1.621-134.409 24.223-13.345-45.334-41.084-84.5-77.926-112.214 35.847-26.507 80.192-42.18 128.201-42.18 4.524 0 9.015.139 13.47.413zM400.015 97.84c36.85 27.616 64.577 66.74 77.847 112.044-17.402 9.623-33.764 21.816-48.528 36.58A217.927 217.927 0 0 0 400 282.847a217.928 217.928 0 0 0-29.334-36.383c-14.762-14.762-31.121-26.954-48.522-36.576 13.277-45.305 41.012-84.433 77.871-112.048zm129.291-44.294c-48.44 0-93.172 15.86-129.29 42.669-36.127-26.824-80.873-42.692-129.322-42.692-3.974 0-7.923.107-11.844.317 80.88-70.059 201.46-70.05 282.33.026-3.931-.212-7.89-.32-11.874-.32zm-258.612 1.279c-4.514 0-8.995.139-13.44.412a219.098 219.098 0 0 0-9.87 9.278c-33.95 33.951-54.225 76.402-60.824 120.505 45.637-6.453 92.934 1.622 134.415 24.226 13.351-45.334 41.098-84.505 77.951-112.217-35.855-26.523-80.214-42.204-128.232-42.204zm272.608-.835c-81.784-71.978-204.78-71.987-286.575-.025C147.92 60.87 60.897 147.91 53.99 256.7c-71.977 81.784-71.985 204.78-.024 286.573C60.872 652.08 147.91 739.103 256.7 746.01c81.794 71.986 204.81 71.985 286.602-.002 108.767-6.921 195.787-93.94 202.708-202.708 71.987-81.793 71.987-204.809 0-286.602C739.09 147.932 652.07 60.91 543.302 53.99zm202.833 487.19c70.084-80.88 70.084-201.479 0-282.359.212 3.93.319 7.89.319 11.873 0 48.441-15.863 93.181-42.68 129.305 26.815 36.122 42.68 80.86 42.68 129.307 0 3.983-.107 7.942-.32 11.873zM702.96 401.088c26.514 35.85 42.192 80.2 42.192 128.217 0 4.523-.14 9.014-.414 13.469a219.125 219.125 0 0 1-9.253 9.84c-33.95 33.952-76.402 54.226-120.505 60.825 6.454-45.636-1.622-92.933-24.226-134.415 45.332-13.35 84.496-41.092 112.206-77.936zm0-2.179c26.515-35.852 42.192-80.205 42.192-128.216 0-4.523-.14-9.014-.414-13.469a219.091 219.091 0 0 0-9.253-9.84c-33.95-33.951-76.402-54.226-120.505-60.825 6.454 45.637-1.622 92.933-24.226 134.415 45.328 13.349 84.494 41.09 112.206 77.935zm-112.848-76.766c45.299 13.275 84.423 41.003 112.037 77.855-27.613 36.851-66.735 64.582-112.037 77.857-9.622-17.4-21.814-33.76-36.576-48.522A217.925 217.925 0 0 0 517.153 400a217.926 217.926 0 0 0 36.383-29.334c14.762-14.762 26.954-31.122 36.576-48.522zm-.638-1.542c22.635-41.408 30.69-88.667 24.163-134.239-45.57-6.526-92.826 1.527-134.233 24.16 5.494 19.1 8.438 39.28 8.438 60.147a218.065 218.065 0 0 1-4.99 46.468 217.967 217.967 0 0 1 46.454-4.98c20.874 0 41.061 2.946 60.168 8.444zM482.54 318.54a216.627 216.627 0 0 1 46.765-5.08c20.646 0 40.615 2.9 59.523 8.312-9.542 17.2-21.613 33.373-36.214 47.973a216.585 216.585 0 0 1-36.673 29.484 215.665 215.665 0 0 0-54.53-24.666 215.751 215.751 0 0 0 21.129-56.023zm-1.091-1.091a216.722 216.722 0 0 0 5.09-46.779c0-20.64-2.897-40.601-8.306-59.502-17.202 9.542-33.377 21.615-47.98 36.217a216.584 216.584 0 0 0-29.482 36.673 215.665 215.665 0 0 1 24.66 54.51 215.675 215.675 0 0 1 56.018-21.12zm-55.646 22.4a214.388 214.388 0 0 1 55.33-20.993 214.466 214.466 0 0 1-21.003 55.334 217.372 217.372 0 0 0-28.215-6.105 217.372 217.372 0 0 0-6.112-28.237zm-1.541-.639A214.379 214.379 0 0 0 400 285.276a214.379 214.379 0 0 0-24.269 53.954 217.41 217.41 0 0 1 24.25 15.622 217.374 217.374 0 0 1 24.282-15.642zm-23.192 16.456a216.063 216.063 0 0 1 23.563-15.172 216.057 216.057 0 0 1 5.936 27.396 218.214 218.214 0 0 0-16.567-1.7 218.245 218.245 0 0 0-12.932-10.524zm-2.178 0a216.104 216.104 0 0 0-23.533-15.152 216.066 216.066 0 0 0-5.93 27.376 218.23 218.23 0 0 1 16.53-1.698 218.22 218.22 0 0 1 12.933-10.526zm-10.807 10.4a216.883 216.883 0 0 1 11.896-9.59 216.907 216.907 0 0 1 11.896 9.587 218.492 218.492 0 0 0-23.792.002zm-3.718 1.54c-5.058.365-10.107.908-15.135 1.628a216.863 216.863 0 0 0-1.627 15.135 218.502 218.502 0 0 1 16.762-16.763zm-16.905 18.882a217.183 217.183 0 0 1 19.024-19.025c8.987-.56 18.002-.56 26.99-.002a217.189 217.189 0 0 1 19.062 19.064c.558 8.974.558 17.976 0 26.95a217.188 217.188 0 0 1-19.064 19.064c-8.986.559-18 .558-26.987-.002a217.188 217.188 0 0 1-19.025-19.025 217.186 217.186 0 0 1 0-27.024zm-1.271-.527c.356-5.526.922-11.04 1.698-16.53a216.061 216.061 0 0 0-27.396 5.935 216.056 216.056 0 0 0 15.159 23.545 218.218 218.218 0 0 1 10.539-12.95zM356.463 400a216.9 216.9 0 0 1 9.602-11.915 218.499 218.499 0 0 0 0 23.828A216.871 216.871 0 0 1 356.463 400zm-1.624 0a217.365 217.365 0 0 1-15.628-24.264A214.38 214.38 0 0 0 285.277 400a214.379 214.379 0 0 0 53.934 24.263A217.382 217.382 0 0 1 354.84 400zm-14.344 24.633a216.076 216.076 0 0 1 15.158-23.545 218.226 218.226 0 0 0 10.539 12.95 218.22 218.22 0 0 0 1.698 16.53 216.067 216.067 0 0 1-27.395-5.935zm-1.926.798a215.664 215.664 0 0 1-54.51-24.66 216.585 216.585 0 0 0-36.674 29.483c-14.595 14.595-26.662 30.76-36.202 47.952 18.904 5.411 38.87 8.309 59.511 8.309 16.056 0 31.703-1.753 46.759-5.079a215.687 215.687 0 0 1 21.116-56.005zm-19.71 55.69a214.401 214.401 0 0 1 20.99-55.318 217.373 217.373 0 0 0 28.236 6.111 217.372 217.372 0 0 0 6.104 28.213 214.37 214.37 0 0 1-55.33 20.993zm-1.717 1.716a217.941 217.941 0 0 1-46.448 4.98c-20.87 0-41.053-2.945-60.156-8.44-22.644 41.412-30.702 88.68-24.175 134.259 45.572 6.526 92.831-1.528 134.24-24.164-5.499-19.105-8.444-39.292-8.444-60.167 0-15.949 1.72-31.497 4.983-46.468zm4.63 105.991c-5.412-18.907-8.311-38.876-8.311-59.523 0-16.063 1.754-31.716 5.083-46.778a215.655 215.655 0 0 0 56.018-21.119 215.664 215.664 0 0 0 24.667 54.533 216.584 216.584 0 0 1-29.484 36.673c-14.6 14.6-30.773 26.672-47.973 36.214zm-.797 1.925c-41.482 22.604-88.778 30.68-134.415 24.226 6.599 44.103 26.874 86.554 60.825 120.505a219.121 219.121 0 0 0 9.841 9.254c4.447.273 8.93.412 13.444.412 48.022 0 92.378-15.681 128.23-42.2-36.84-27.71-64.577-66.87-77.925-112.197zm79.014 111.386c-36.845-27.613-64.571-66.731-77.845-112.028 17.4-9.622 33.76-21.814 48.522-36.576A217.926 217.926 0 0 0 400 517.153a217.927 217.927 0 0 0 29.334 36.383c14.756 14.756 31.109 26.945 48.502 36.565-13.272 45.298-40.998 84.422-77.847 112.039zm0 1.624c-36.123 26.821-80.866 42.69-129.319 42.69-3.975 0-7.925-.107-11.848-.318 80.88 70.083 201.478 70.083 282.358-.002-3.931.212-7.89.32-11.874.32-48.447 0-93.191-15.868-129.317-42.69zm142.787 40.974c-4.455.274-8.946.413-13.47.413-48.016 0-92.374-15.68-128.228-42.2 36.843-27.714 64.58-66.88 77.927-112.208 41.486 22.612 88.791 30.691 134.435 24.237-6.598 44.103-26.873 86.554-60.825 120.505a219.118 219.118 0 0 1-9.84 9.253zm2.116-.141a220.553 220.553 0 0 0 8.644-8.19c34.256-34.257 54.673-77.113 61.25-121.622 44.508-6.577 87.364-26.993 121.62-61.249a220.583 220.583 0 0 0 8.192-8.645c-7.621 106.775-92.931 192.085-199.706 199.706zM255.138 55.377C148.32 62.984 63.008 148.313 55.4 255.11a220.603 220.603 0 0 1 8.193-8.647c34.256-34.256 77.113-54.672 121.62-61.25 6.578-44.508 26.994-87.364 61.25-121.62a220.578 220.578 0 0 1 8.674-8.217zM53.84 541.15c-70.059-80.88-70.05-201.457.024-282.328-.21 3.923-.318 7.873-.318 11.848 0 48.445 15.864 93.182 42.678 129.303-26.83 36.128-42.701 80.879-42.701 129.333 0 3.974.107 7.923.317 11.844zm1.009-270.48c0 48.015 15.676 92.365 42.189 128.214 27.713-36.837 66.876-64.572 112.205-77.916-22.602-41.48-30.676-88.774-24.223-134.408-44.103 6.598-86.554 26.873-120.505 60.825a219.112 219.112 0 0 0-9.255 9.842 219.15 219.15 0 0 0-.411 13.443zm-.024 258.636c0-48.023 15.685-92.387 42.212-128.244 27.715 36.85 66.886 64.594 112.22 77.942-22.612 41.487-30.691 88.792-24.237 134.436-44.103-6.598-86.554-26.873-120.505-60.825a219.12 219.12 0 0 1-9.278-9.869 219.176 219.176 0 0 1-.412-13.44zm43.023-129.333c27.617 36.857 66.747 64.589 112.051 77.862 9.62-17.392 21.809-33.744 36.565-48.5A217.925 217.925 0 0 1 282.848 400a217.926 217.926 0 0 1-36.384-29.334c-14.764-14.764-26.957-31.126-36.58-48.528-45.299 13.269-84.42 40.992-112.036 77.835zM400 514.723a214.38 214.38 0 0 1-24.27-53.957 217.358 217.358 0 0 0 24.25-15.62 217.377 217.377 0 0 0 24.283 15.643A214.379 214.379 0 0 1 400 514.724zm-24.64-55.24a216.052 216.052 0 0 0 23.532-15.15 218.228 218.228 0 0 1-12.93-10.525 218.231 218.231 0 0 1-16.532-1.698 216.06 216.06 0 0 0 5.93 27.373zm49.274.022a216.075 216.075 0 0 1-23.564-15.172 218.207 218.207 0 0 0 12.932-10.522 218.232 218.232 0 0 0 16.568-1.701 216.063 216.063 0 0 1-5.936 27.395zm-24.653-15.983a216.872 216.872 0 0 0 11.895-9.585c-7.923.431-15.866.43-23.79-.002a216.88 216.88 0 0 0 11.895 9.587zm30.786-12.755a216.874 216.874 0 0 1-15.173 1.63 218.514 218.514 0 0 0 16.803-16.803 216.901 216.901 0 0 1-1.63 15.173zm1.343-.197a218.225 218.225 0 0 0 1.7-16.568 218.246 218.246 0 0 0 10.51-12.912 216.056 216.056 0 0 1 15.163 23.55 216.06 216.06 0 0 1-27.373 5.93zm1.827-18.693a216.912 216.912 0 0 0 9.572-11.876 216.875 216.875 0 0 0-9.572-11.877c.43 7.911.43 15.842 0 23.753zm26.83 12.393A217.358 217.358 0 0 0 445.133 400a217.409 217.409 0 0 0 15.637-24.27 214.379 214.379 0 0 1 53.954 24.27 214.377 214.377 0 0 1-53.957 24.269zm-16.448-25.358a216.106 216.106 0 0 0 15.167-23.552 216.064 216.064 0 0 0-27.376-5.93 218.214 218.214 0 0 1 1.7 16.568 218.204 218.204 0 0 1 10.51 12.914zm100.572-343.51c106.776 7.622 192.086 92.932 199.707 199.707a220.584 220.584 0 0 0-8.192-8.645c-34.256-34.256-77.112-54.672-121.62-61.25-6.577-44.508-26.994-87.364-61.25-121.62a220.589 220.589 0 0 0-8.645-8.191zm43.938 422.826c-9.542-17.2-21.613-33.372-36.214-47.973a216.585 216.585 0 0 0-36.673-29.483 215.666 215.666 0 0 1-54.533 24.666 215.655 215.655 0 0 1 21.12 56.018 216.612 216.612 0 0 0 46.777 5.083c20.647 0 40.616-2.898 59.523-8.311zm-105.99 4.63a217.954 217.954 0 0 0 46.467 4.984c20.876 0 41.062-2.946 60.168-8.444 22.635 41.408 30.69 88.667 24.163 134.239-45.58 6.527-92.847-1.53-134.26-24.175 5.497-19.103 8.441-39.286 8.441-60.156 0-15.942-1.718-31.483-4.98-46.448zm-1.718-1.717a214.371 214.371 0 0 0-20.993-55.33 217.367 217.367 0 0 1-28.212 6.104 217.375 217.375 0 0 1-6.112 28.236 214.401 214.401 0 0 0 55.317 20.99zm-55.689-19.71a215.688 215.688 0 0 0 56.005 21.117 216.598 216.598 0 0 1 5.079 46.758c0 20.641-2.898 40.607-8.309 59.512-17.192-9.54-33.357-21.608-47.952-36.203a216.584 216.584 0 0 1-29.483-36.673 215.665 215.665 0 0 0 24.66-54.51zm-57.826-45.8a218.498 218.498 0 0 0 16.763 16.763 216.899 216.899 0 0 1-15.136-1.627 216.865 216.865 0 0 1-1.627-15.136zm-27.757-41.435a217.37 217.37 0 0 1 28.236-6.111 217.375 217.375 0 0 1 6.105-28.217 214.465 214.465 0 0 0-55.334-21.002 214.388 214.388 0 0 0 20.993 55.33zm-22.4-55.646a215.674 215.674 0 0 0 21.119 56.018 215.665 215.665 0 0 0-54.51 24.66 216.585 216.585 0 0 1-36.673-29.483c-14.602-14.602-26.675-30.777-36.217-47.979 18.9-5.409 38.863-8.306 59.502-8.306a216.722 216.722 0 0 1 46.78 5.09zm1.091-1.09a215.75 215.75 0 0 1 56.022 21.128 215.666 215.666 0 0 1 24.667-54.53 216.584 216.584 0 0 0-29.484-36.673c-14.6-14.6-30.773-26.672-47.972-36.214-5.413 18.908-8.312 38.877-8.312 59.523 0 16.059 1.753 31.707 5.08 46.765zm2.063-106.933c-5.499 19.106-8.444 39.293-8.444 60.167 0 15.945 1.718 31.488 4.98 46.455a218.064 218.064 0 0 0-46.469-4.99c-20.867 0-41.047 2.943-60.147 8.437-22.633-41.407-30.686-88.663-24.16-134.233 45.572-6.526 92.832 1.528 134.24 24.164zM55.377 544.862C62.984 651.68 148.313 736.991 255.111 744.6a220.634 220.634 0 0 1-8.647-8.193c-34.256-34.256-54.672-77.112-61.25-121.62-44.507-6.578-87.364-26.994-121.62-61.25a220.606 220.606 0 0 1-8.217-8.674zm375.39-175.628a216.886 216.886 0 0 1 1.63 15.172 218.508 218.508 0 0 0-16.802-16.803 216.89 216.89 0 0 1 15.172 1.63z" opacity=".4" style="mix-blend-mode:NORMAL"/></g></g></g></g></g><animateTransform fill="freeze" additive="sum" attributeName="transform" calcMode="spline" dur="10s" href="#d" keySplines="0 0 1 1;0.5 0.35 1 1" keyTimes="0;1;1" repeatCount="indefinite" type="rotate" values="0 400.0001 400.0001;45 400.0001 400.0001;45 400.0001 400.0001"/><animate fill="freeze" additive="sum" attributeName="opacity" calcMode="spline" dur="10s" href="#d" keySplines="0.5 0.35 0.15 1" keyTimes="0;1" repeatCount="indefinite" values="0.4;0.4"/></svg>