<?xml version="1.0" standalone="no"?>
<!DOCTYPE svg PUBLIC "-//W3C//DTD SVG 20010904//EN"
 "http://www.w3.org/TR/2001/REC-SVG-20010904/DTD/svg10.dtd">
<svg version="1.0" xmlns="http://www.w3.org/2000/svg"
 width="869.000000pt" height="1280.000000pt" viewBox="0 0 869.000000 1280.000000"
 preserveAspectRatio="xMidYMid meet">
<metadata>
Created by potrace 1.15, written by Peter Selinger 2001-2017
</metadata>
<g transform="translate(0.000000,1280.000000) scale(0.100000,-0.100000)"
fill="#000000" stroke="none">
<path d="M1355 12794 c-239 -18 -605 -69 -781 -109 -14 -3 -29 -22 -42 -52
-57 -134 -33 -211 78 -248 71 -24 139 -73 171 -124 l29 -45 0 -200 c0 -111 -7
-594 -15 -1074 l-15 -873 68 -148 69 -147 -18 -2221 -17 -2221 -48 -58 c-97
-119 -120 -221 -70 -310 l26 -46 -29 -37 c-35 -44 -55 -103 -45 -133 4 -13 21
-36 39 -53 l33 -30 -21 -1250 -20 -1250 -37 -32 c-51 -44 -66 -83 -48 -120 13
-26 12 -31 -18 -70 -47 -62 -51 -103 -17 -172 l28 -56 -59 -78 c-126 -169
-241 -262 -342 -277 -33 -4 -71 -13 -85 -18 -89 -35 -93 -167 -10 -279 l36
-48 -5 -168 -5 -168 -60 -24 c-145 -59 -157 -115 -55 -257 l39 -55 383 -172
382 -172 466 10 c854 20 1268 46 1410 87 63 18 80 30 80 53 0 14 36 23 228 54
125 21 358 55 517 77 369 51 471 67 569 91 179 45 253 118 217 212 -8 21 -6
26 12 31 12 3 37 6 56 6 100 0 211 60 211 114 0 14 2 26 4 26 3 0 42 -9 88
-20 96 -23 195 -26 241 -7 36 15 103 85 117 122 l9 23 37 -18 c24 -13 47 -17
68 -13 82 15 240 130 266 193 20 48 8 159 -24 224 -24 49 -34 59 -89 86 -50
24 -83 32 -157 39 -58 5 -109 15 -130 26 -29 15 -190 112 -197 119 -2 1 83
164 188 362 105 197 256 485 336 639 381 731 506 953 1240 2195 1169 1980
1196 2026 1608 2780 131 239 321 626 373 757 29 73 57 164 64 202 11 64 10 78
-14 173 -61 248 -209 463 -372 543 -101 49 -169 64 -355 76 -205 12 -315 1
-461 -47 -128 -43 -218 -90 -429 -228 -382 -250 -524 -317 -798 -378 -144 -32
-387 -32 -532 0 -241 54 -451 154 -587 279 -204 188 -363 533 -469 1018 -107
494 -128 582 -166 700 -89 278 -231 542 -442 818 -270 354 -551 551 -997 697
-276 91 -476 131 -662 132 -65 0 -118 4 -118 8 0 21 127 116 229 172 17 9 40
32 51 50 20 33 27 102 12 124 -11 17 -128 60 -237 87 -114 29 -286 59 -460 82
-116 16 -418 27 -520 19z m1003 -6804 l2 -3914 -67 -68 c-37 -37 -70 -68 -73
-68 -3 0 -11 13 -18 29 -7 15 -28 36 -47 46 -28 16 -32 22 -24 37 25 46 1 83
-65 103 -17 5 -18 14 -12 123 3 64 9 639 12 1277 l6 1160 30 34 c16 18 34 45
39 60 14 36 -3 90 -40 125 l-30 29 24 29 c49 59 24 139 -76 243 l-57 60 -3
960 c-1 528 -4 1529 -8 2224 l-6 1263 36 57 c33 52 41 58 95 74 90 27 143 35
214 34 l65 -2 3 -3915z m192 3872 l55 -28 3 -3754 2 -3755 -100 -100 -100
-100 0 3889 0 3889 43 -7 c23 -3 67 -19 97 -34z m231 -215 l79 -98 0 -3487 0
-3487 -100 -100 -100 -100 0 3704 0 3704 21 -19 c12 -10 57 -63 100 -117z
m190 -268 c23 -35 66 -109 96 -165 l53 -101 0 -3134 -1 -3134 -99 -105 -99
-105 -1 3409 c0 1875 2 3407 5 3405 2 -3 23 -34 46 -70z m377 -739 l22 -35 0
-2753 0 -2753 -100 -102 -100 -102 1 3045 0 3045 78 -155 c42 -85 87 -171 99
-190z m210 -277 l72 -82 0 -2457 0 -2457 -100 -101 -100 -101 1 2675 0 2675
27 -35 c15 -19 60 -72 100 -117z m322 -2512 l0 -2217 -100 -104 -99 -105 -1
2403 0 2403 100 -82 100 -82 0 -2216z m3541 2015 l-171 -207 0 136 c0 85 4
135 10 135 6 0 81 34 167 75 86 41 159 73 161 71 2 -2 -73 -97 -167 -210z
m-3378 84 l96 -65 1 -1985 0 -1985 -95 -105 c-52 -58 -99 -106 -103 -107 -4
-2 -7 969 -7 2157 0 1188 3 2159 6 2158 4 -2 50 -32 102 -68z m3157 -202 l-1
-153 -95 -115 c-52 -63 -99 -119 -104 -124 -7 -7 -10 76 -10 225 l0 235 83 32
c45 18 89 37 97 42 8 5 18 10 23 10 4 0 7 -69 7 -152z m-2867 20 l57 -31 0
-1770 0 -1770 -56 -66 c-31 -36 -76 -88 -100 -115 l-44 -48 0 1941 0 1942 43
-26 c23 -14 68 -40 100 -57z m2607 -232 l0 -255 -100 -121 -100 -122 2 344 3
343 85 31 c47 18 91 32 98 33 9 1 12 -56 12 -253z m-2300 94 c7 0 10 -545 10
-1564 l0 -1565 -95 -113 c-53 -62 -99 -114 -103 -116 -5 -1 -7 3208 -2 3434 0
1 41 -16 90 -37 50 -22 95 -39 100 -39z m2050 -292 l-1 -363 -95 -115 c-52
-63 -99 -119 -104 -124 -7 -7 -10 156 -10 445 l0 455 93 31 c50 17 98 32 105
32 9 1 12 -78 12 -361z m-260 -197 l0 -480 -100 -121 -100 -121 0 575 0 575
43 11 c23 5 62 16 87 24 25 8 51 15 58 15 9 1 12 -101 12 -478z m-1642 445
c31 -8 69 -17 85 -20 l27 -6 0 -1378 0 -1378 -86 -105 c-47 -57 -92 -111 -100
-119 -12 -12 -14 187 -14 1509 0 1364 2 1523 15 1517 9 -3 41 -12 73 -20z
m265 -51 c20 -3 53 -7 72 -10 l35 -6 0 -1200 0 -1201 -96 -116 c-53 -64 -100
-118 -103 -120 -4 -1 -5 2307 -1 2666 0 2 12 1 28 -2 15 -3 44 -8 65 -11z
m1127 -581 l0 -596 -102 -125 -103 -124 -3 697 c-1 384 1 701 5 705 10 9 137
37 176 38 l27 1 0 -596z m-817 547 l47 -1 0 -1038 0 -1038 -96 -117 c-52 -64
-97 -117 -100 -117 -2 0 -4 523 -4 1163 l0 1163 53 -7 c28 -4 73 -8 100 -8z
m557 -725 l0 -734 -96 -116 c-52 -64 -97 -116 -100 -116 -2 0 -4 377 -4 839
l0 839 88 9 c48 6 93 11 100 12 9 1 12 -152 12 -733z m-250 -162 l0 -876 -96
-116 c-53 -64 -101 -118 -105 -120 -5 -2 -9 441 -9 992 l0 996 105 0 105 0 0
-876z"/>
</g>
</svg>
