<?xml version="1.0" standalone="no"?>
<!DOCTYPE svg PUBLIC "-//W3C//DTD SVG 20010904//EN"
 "http://www.w3.org/TR/2001/REC-SVG-20010904/DTD/svg10.dtd">
<svg version="1.0" xmlns="http://www.w3.org/2000/svg"
 width="1280.000000pt" height="1246.000000pt" viewBox="0 0 1280.000000 1246.000000"
 preserveAspectRatio="xMidYMid meet">
<metadata>
Created by potrace 1.15, written by Peter Selinger 2001-2017
</metadata>
<g transform="translate(0.000000,1246.000000) scale(0.100000,-0.100000)"
fill="#000000" stroke="none">
<path d="M5562 12449 c-86 -17 -321 -101 -383 -137 -281 -164 -399 -527 -323
-1002 24 -155 63 -309 100 -402 l36 -87 -1376 -2199 -1376 -2200 0 -56 0 -56
-127 1 -128 0 -253 315 -253 314 -50 0 c-58 0 -1175 66 -1264 75 l-60 6 408
-408 408 -409 -453 -393 c-249 -216 -454 -397 -456 -401 -1 -4 192 -10 430
-14 238 -3 548 -9 688 -13 l255 -6 299 317 300 317 120 -3 119 -3 2 -25 c1
-14 573 -996 1271 -2183 l1271 -2158 -48 -120 c-89 -221 -129 -406 -129 -599
0 -277 57 -491 173 -647 150 -201 420 -306 670 -259 218 41 406 143 518 280
62 76 132 217 155 314 29 126 11 367 -38 509 -58 164 -187 261 -358 271 -135
7 -300 -32 -453 -110 -33 -16 -55 -23 -51 -16 21 36 135 204 193 283 323 448
935 1141 1637 1855 142 144 238 250 267 295 91 142 154 291 194 455 14 59 18
115 18 255 -1 161 -3 191 -27 281 -63 244 -183 466 -372 691 l-85 101 77 79
c84 85 132 159 167 256 l23 62 118 -3 c186 -4 891 -21 1314 -32 212 -5 472
-12 578 -16 l192 -6 0 -374 c0 -206 3 -374 8 -374 15 -1 3281 934 3277 938 -3
3 -3273 941 -3282 942 -2 0 -3 -186 -3 -414 l0 -415 -102 5 c-57 2 -293 9
-525 14 -1063 25 -1277 30 -1409 36 l-140 6 -18 76 c-19 83 -78 216 -120 272
-43 57 -137 149 -181 177 l-41 25 92 93 c207 208 395 482 489 710 209 505 128
959 -243 1357 -50 53 -96 107 -102 120 -23 42 -163 231 -249 333 -163 195
-369 411 -598 627 -128 120 -269 262 -314 316 -222 265 -353 502 -366 661 l-5
66 138 1 c219 3 372 53 483 159 108 103 153 220 152 400 0 147 -12 198 -70
316 -204 411 -504 618 -809 558z m-255 -2207 c173 -293 406 -645 493 -743 99
-113 261 -326 351 -464 281 -428 428 -783 485 -1166 30 -207 10 -473 -51 -654
-24 -72 -108 -246 -144 -298 -18 -27 -28 -52 -25 -64 5 -16 -4 -22 -56 -36
-259 -73 -462 -284 -530 -556 l-12 -44 -301 7 c-166 4 -455 11 -642 16 -187 5
-738 18 -1225 30 -487 11 -912 23 -946 26 l-61 5 771 1232 c424 678 1001 1600
1281 2050 281 449 512 816 515 816 3 0 47 -70 97 -157z m-2047 -4262 c250 -6
613 -15 805 -20 193 -5 629 -16 970 -25 341 -8 658 -16 705 -18 l85 -2 31 -87
c85 -237 277 -414 518 -475 l70 -18 38 -81 c249 -532 35 -1274 -621 -2154
-142 -190 -322 -407 -468 -561 -122 -129 -247 -282 -332 -406 -31 -45 -58 -82
-61 -82 -5 -1 -2320 3932 -2320 3941 0 3 28 4 63 2 34 -2 267 -9 517 -14z"/>
</g>
</svg>
