<?xml version="1.0" standalone="no"?>
<!DOCTYPE svg PUBLIC "-//W3C//DTD SVG 20010904//EN"
 "http://www.w3.org/TR/2001/REC-SVG-20010904/DTD/svg10.dtd">
<svg version="1.0" xmlns="http://www.w3.org/2000/svg"
 width="1280.000000pt" height="1223.000000pt" viewBox="0 0 1280.000000 1223.000000"
 preserveAspectRatio="xMidYMid meet">
<metadata>
Created by potrace 1.15, written by Peter Selinger 2001-2017
</metadata>
<g transform="translate(0.000000,1223.000000) scale(0.100000,-0.100000)"
fill="#000000" stroke="none">
<path d="M2566 12198 c4 -13 76 -246 160 -518 141 -459 273 -886 826 -2675
115 -374 253 -819 305 -990 53 -170 98 -315 102 -321 3 -6 119 70 286 188 154
109 286 202 293 207 11 6 -9 82 -93 352 -192 619 -605 1961 -605 1965 0 3 435
-319 535 -397 6 -5 51 16 105 48 117 69 363 190 490 241 52 21 94 42 93 46 -2
8 -2490 1876 -2499 1876 -3 0 -2 -10 2 -22z"/>
<path d="M8520 10744 c-1064 -750 -1936 -1367 -1937 -1371 -1 -4 126 -104 283
-221 l285 -213 192 135 c106 74 550 387 987 695 437 308 796 559 797 557 1 -1
-5 -22 -13 -46 -9 -25 -58 -169 -110 -320 l-94 -275 68 -59 c99 -87 285 -277
381 -389 46 -54 87 -95 91 -90 4 4 32 82 63 173 30 91 186 550 347 1020 391
1145 417 1222 500 1465 39 116 78 229 87 253 9 23 14 44 12 46 -2 1 -875 -611
-1939 -1360z"/>
<path d="M6043 10445 c-490 -56 -913 -183 -1338 -404 -223 -116 -528 -313
-521 -336 39 -138 213 -695 217 -695 3 0 42 30 85 66 442 369 985 603 1579
680 161 21 524 24 680 6 61 -7 118 -14 127 -15 24 -3 759 516 744 525 -29 16
-312 91 -446 118 -268 53 -372 63 -700 66 -213 2 -342 -1 -427 -11z"/>
<path d="M8272 9580 c-161 -114 -293 -211 -293 -215 0 -4 55 -43 123 -88 213
-142 402 -303 574 -488 370 -400 637 -927 743 -1463 10 -54 21 -99 23 -101 35
-35 724 -542 727 -534 6 19 -19 408 -35 527 -117 912 -596 1783 -1304 2371
-113 94 -254 202 -261 200 -2 0 -136 -95 -297 -209z"/>
<path d="M5990 9623 c-115 -20 -286 -58 -386 -87 -113 -33 -370 -129 -387
-146 -7 -6 2717 -2055 2747 -2066 11 -4 245 670 236 679 -24 22 -2166 1619
-2174 1622 -6 1 -22 0 -36 -2z"/>
<path d="M3378 8883 c-295 -411 -519 -939 -617 -1453 -67 -347 -83 -792 -41
-1135 26 -221 99 -554 158 -725 l19 -55 204 -6 c112 -3 279 -7 370 -8 l167 -1
-50 127 c-287 735 -271 1598 44 2306 22 51 47 110 55 132 l15 40 -131 425
c-73 233 -133 425 -135 427 -1 2 -28 -32 -58 -74z"/>
<path d="M4662 8027 c-875 -616 -1112 -787 -1116 -807 -21 -93 -38 -300 -39
-460 0 -189 10 -370 22 -370 11 1 2812 1978 2812 1985 0 4 -128 103 -284 220
l-284 213 -1111 -781z"/>
<path d="M8487 8447 c-102 -303 -193 -568 -377 -1107 -72 -212 -167 -488 -210
-615 -43 -126 -110 -322 -148 -435 -86 -252 -197 -578 -248 -727 -21 -62 -36
-114 -34 -116 3 -2 165 -7 360 -10 l355 -6 49 142 c151 446 295 869 476 1397
72 212 162 475 200 585 37 110 87 256 111 325 l43 124 -55 106 c-61 118 -191
318 -276 424 -75 93 -147 176 -153 176 -3 0 -45 -118 -93 -263z"/>
<path d="M8985 7397 c-30 -82 -225 -661 -225 -667 0 -5 434 -333 965 -730 531
-397 965 -723 965 -723 0 -1 -154 -1 -342 1 l-343 3 -50 -118 c-55 -128 -166
-338 -251 -471 -29 -47 -53 -87 -51 -88 2 -2 1157 -20 2675 -42 254 -4 462 -5
462 -2 -1 3 -139 108 -308 235 -169 126 -1024 766 -1900 1422 -954 715 -1594
1188 -1597 1180z"/>
<path d="M4548 6957 c-157 -111 -289 -205 -292 -208 -3 -3 81 -289 188 -635
339 -1097 526 -1705 567 -1836 39 -124 40 -127 82 -151 71 -41 265 -123 402
-170 120 -41 353 -102 360 -95 2 2 -19 73 -45 158 -70 227 -437 1414 -700
2265 -280 906 -270 875 -273 875 -1 0 -131 -92 -289 -203z"/>
<path d="M1300 5659 c-696 -490 -1272 -894 -1280 -899 -8 -5 -13 -10 -10 -13
3 -2 547 -12 1210 -21 663 -10 1729 -26 2370 -36 641 -9 1166 -17 1167 -16 4
3 -206 678 -212 685 -5 4 -1800 35 -2339 40 l-78 1 263 186 c145 102 270 191
278 199 12 12 11 32 -12 142 -44 216 -61 342 -73 516 -4 59 -9 107 -13 107 -3
0 -575 -401 -1271 -891z"/>
<path d="M9401 6043 c-5 -21 -17 -66 -26 -101 -29 -116 -105 -331 -160 -454
-266 -595 -721 -1095 -1291 -1417 l-92 -52 -60 -177 c-34 -97 -100 -289 -147
-426 -47 -137 -84 -251 -82 -252 1 -1 52 14 112 35 797 275 1494 831 1943
1551 96 153 176 304 246 462 64 145 165 423 156 430 -50 37 -534 398 -557 415
l-32 24 -10 -38z"/>
<path d="M5532 5334 c22 -81 203 -661 208 -667 3 -4 616 -17 1361 -28 l1354
-20 107 110 c59 61 149 167 200 235 90 120 223 324 216 331 -2 2 -631 13
-1398 24 -767 11 -1543 23 -1724 27 -319 7 -329 6 -324 -12z"/>
<path d="M3446 4483 c393 -507 864 -888 1411 -1142 473 -219 920 -324 1475
-347 l164 -7 54 159 c29 87 82 242 117 343 34 101 63 187 63 190 0 4 -123 7
-272 6 -296 0 -388 8 -632 57 -540 107 -1023 352 -1450 735 l-89 80 -315 6
c-173 4 -378 7 -454 7 l-140 0 68 -87z"/>
<path d="M7138 4490 c-11 -27 -92 -265 -396 -1160 -44 -129 -140 -408 -212
-620 -72 -212 -139 -407 -148 -434 -9 -27 -18 -43 -21 -35 -3 8 -49 154 -101
324 l-96 310 -50 7 c-27 4 -110 14 -184 23 -129 16 -355 59 -467 89 -39 10
-53 11 -53 3 0 -12 42 -148 460 -1502 127 -412 281 -910 341 -1105 60 -195
112 -362 115 -370 6 -15 25 37 165 448 152 445 238 698 307 902 172 503 324
947 502 1470 148 435 220 645 362 1060 38 113 100 294 137 403 42 124 64 200
57 202 -6 2 -168 5 -360 7 l-348 3 -10 -25z"/>
</g>
</svg>
