<?xml version="1.0" standalone="no"?>
<!DOCTYPE svg PUBLIC "-//W3C//DTD SVG 20010904//EN"
 "http://www.w3.org/TR/2001/REC-SVG-20010904/DTD/svg10.dtd">
<svg version="1.0" xmlns="http://www.w3.org/2000/svg"
 width="1280.000000pt" height="1188.000000pt" viewBox="0 0 1280.000000 1188.000000"
 preserveAspectRatio="xMidYMid meet">
<metadata>
Created by potrace 1.15, written by Peter Selinger 2001-2017
</metadata>
<g transform="translate(0.000000,1188.000000) scale(0.100000,-0.100000)"
fill="#000000" stroke="none">
<path d="M10419 11810 c905 -1147 1471 -2422 1641 -3691 65 -491 67 -1096 5
-1566 -141 -1069 -564 -2031 -1241 -2823 -126 -148 -397 -418 -544 -544 -1066
-911 -2401 -1301 -3614 -1054 -1465 297 -2638 1509 -2546 2632 35 437 198 751
412 791 l35 7 7 -124 c31 -530 192 -974 493 -1355 147 -186 395 -398 613 -523
547 -313 1291 -433 1973 -319 1102 184 2043 1040 2447 2224 129 378 183 711
182 1115 -2 881 -234 1684 -688 2382 -397 611 -942 1100 -1616 1452 -1170 611
-2665 722 -3978 294 -689 -224 -1331 -586 -1895 -1068 -158 -136 -524 -503
-657 -660 -742 -879 -1226 -1943 -1387 -3055 -45 -310 -55 -455 -55 -840 0
-398 12 -575 60 -920 174 -1242 711 -2394 1578 -3385 188 -215 615 -637 751
-741 29 -23 29 -23 -6 21 -799 1000 -1363 2176 -1583 3305 -92 472 -121 804
-113 1308 10 645 93 1139 288 1720 260 778 684 1463 1259 2037 565 565 1206
962 1930 1194 181 58 336 98 513 130 284 53 370 60 722 60 294 1 347 -2 485
-22 822 -122 1551 -484 2091 -1038 489 -503 745 -1104 699 -1642 -38 -439
-199 -747 -412 -787 l-35 -7 -7 124 c-15 253 -52 458 -122 667 -221 661 -704
1149 -1384 1396 -294 107 -608 162 -981 172 -457 12 -840 -58 -1239 -229 -981
-419 -1750 -1441 -1939 -2578 -58 -350 -60 -736 -5 -1170 67 -537 252 -1098
515 -1563 250 -442 614 -869 1013 -1189 634 -508 1425 -849 2257 -972 1095
-162 2169 -1 3144 473 591 287 1054 620 1536 1100 595 595 1029 1252 1348
2038 220 544 352 1096 413 1728 19 197 16 806 -5 1035 -133 1423 -661 2647
-1616 3745 -139 160 -455 479 -616 623 -170 152 -177 157 -126 92z"/>
</g>
</svg>
